<?xml version="1.0"?>
<svg id="Layer_1" xmlns="http://www.w3.org/2000/svg" version="1.1" viewBox="0 0 1241.2 180.7">
  
  <g>
    <rect x="478.9" y="2.2" width="4.5" height="176.3"></rect>
    <path d="M142.2,3.5c-12.1,7.4-36.4,28.7-62.9,54.2-2.5-2,1.3,1.1-1.1-.9,14-24.4,25.5-51.7,26.3-54.7h37.3c.4,1.4,0,0,.4,1.3M69,68.7c6.8,11.8,58.4,79.9,86.9,109.8h-46.1c-17.1-23.7-60.5-80.1-67.5-86.2l26.7-23.7ZM37,2.2c-.8,18.9-1.3,50.9-1.3,87.2s.3,72,1.3,89.2H0c1-10.6,1.8-46.6,1.8-86.4S1.3,27.9,0,2.2h37Z"></path>
    <path d="M265.5,26.8c-5.7-10.3-14.1-19.5-26.9-25.4.5-2.2-.2.8.3-1.4l32.5,2.2-4.6,24.4c-1.1.2-.2,0-1.4.2M206.7,180.7l-38.7-2.7,5.6-32.8c1.4-.2,0,0,1.4-.2,5.4,13.5,16.5,27.5,32,34.2-.6,2.3.2-.9-.3,1.4M194.5,32.2c0,19.1,15.1,28,31,35.3,30.7,13.9,53.7,28.2,53.7,61s-17.6,48.8-48.6,52.2c-.9-4.3.6,2.9-.3-1.5,16.8-5.3,24.7-16.9,24.7-32.4s-14.1-29.7-37.3-41.1c-28.7-14.6-51.1-27.7-51.1-57.4S184.8,3.1,217.6,0c.8,4.3-.6-2.9.3,1.4-16,4.9-23.4,16.3-23.4,30.7"></path>
    <path d="M412,145.4v33.2h-49.4c-.4-2.3.1.9-.3-1.5,18-6.7,38.8-20.9,48.4-32.2,1,.4.3,0,1.3.5M406.7,2.2v29.8c-1.1.4-.2,0-1.3.5-9.6-12.1-28.1-23.9-44.6-28.8.4-3-.2,1.5.2-1.5h45.7ZM398.4,72.8v28.5c-.7.4-.5.2-1.2.6-12.1-8.7-26-12.3-39.5-15.1,0-2.1,0,.6,0-1.5,15-2.5,30.1-7.6,39.5-13.1.6.4.5.3,1.1.6M345.5,2.2c-.8,25.9-1.3,55.4-1.3,91.7s.5,72,1.3,84.6h-37c1-10.6,1.8-46.6,1.8-86.4s-.5-64.2-1.8-89.9h37Z"></path>
  </g>
  <g>
    <path d="M560.4,105.7V41.5h19.4v62.7c0,19,6.1,26.8,21.4,26.8s22.4-6.7,22.4-28.1v-61.4h19.4v63c0,27.1-14.6,42-42,42s-40.7-14.2-40.7-40.8Z"></path>
    <path d="M663.7,69.3h17.5v12c3.6-7.4,12-13.6,24.5-13.6s25.9,8.8,25.9,29.7v47.6h-17.5v-46c0-11.4-4.6-16.6-15.1-16.6s-17.8,6.1-17.8,18.1v44.6h-17.5v-75.7Z"></path>
    <path d="M750.3,46.9c0-5.8,4.6-10.1,10.4-10.1s10.4,4.3,10.4,10.1-4.6,10-10.4,10-10.4-4.3-10.4-10ZM752.2,69.3h17.5v75.7h-17.5v-75.7Z"></path>
    <path d="M783.2,69.3h18.8l19.8,57.8,19.5-57.8h17.2l-27.4,75.7h-20.4l-27.6-75.7Z"></path>
    <path d="M863.6,108v-1.2c0-23.5,16.1-39.1,37.6-39.1s35.8,11.1,35.8,38.2v5.1h-55.4c.6,14.3,7.8,22.4,20.8,22.4s16.1-4.2,17.4-11.6h16.9c-2.5,15.9-15.3,24.6-34.7,24.6s-38.4-14.6-38.4-38.5ZM919.7,99.3c-.9-13-7.5-18.8-18.4-18.8s-17.7,7.1-19.4,18.8h37.8Z"></path>
    <path d="M952.7,69.3h17.5v14.2c4.8-9.6,11.9-15.2,24.6-15.3v16.4c-15.3.1-24.6,5.1-24.6,21.1v39.4h-17.5v-75.7Z"></path>
    <path d="M1004.4,121.4h16.5c.9,7.7,4.8,12.2,15.1,12.2s13.6-3.3,13.6-9.7-5.1-8.5-16.2-10.4c-20-3.2-27.4-8.8-27.4-23s14.2-22.7,28.4-22.7,27.8,5.8,29.7,22.9h-16.2c-1.4-6.9-5.4-10.1-13.5-10.1s-12,3.6-12,9,3.6,7.7,15.6,9.7c17.8,2.8,28.4,7.1,28.4,23.2s-10.9,24.2-30.3,24.2-31-9-31.7-25Z"></path>
    <path d="M1080.2,46.9c0-5.8,4.6-10.1,10.4-10.1s10.4,4.3,10.4,10.1-4.6,10-10.4,10-10.4-4.3-10.4-10ZM1082.1,69.3h17.5v75.7h-17.5v-75.7Z"></path>
    <path d="M1123.8,123.9v-41.4h-10.1v-13.2h10.1v-16.6h17.5v16.6h16.6v13.2h-16.6v39.8c0,6.7,3.2,9.7,8.7,9.7s6.1-.4,8.5-1.4v13.9c-2.8,1-6.5,1.9-11.9,1.9-15.1,0-22.9-8.1-22.9-22.4Z"></path>
    <path d="M1196.4,137.4l-30-68h19l20.1,48.8,18.5-48.8h17.1l-41.3,101.6h-17.2l13.8-33.6Z"></path>
  </g>
</svg>